<?xml version="1.0" standalone="no"?><!DOCTYPE svg PUBLIC "-//W3C//DTD SVG 1.1//EN" "http://www.w3.org/Graphics/SVG/1.1/DTD/svg11.dtd"><svg t="1538542471364" class="icon" style="" viewBox="0 0 1024 1024" version="1.1" xmlns="http://www.w3.org/2000/svg" p-id="7097" xmlns:xlink="http://www.w3.org/1999/xlink" width="640" height="640"><defs><style type="text/css"></style></defs><path d="M489.2 134.6s47.5 21.7 297.9 478.7c0 0 11.2 69.7-66.4 48.6 0 0-236.2-436.4-231.5-527.3zM763.8 723.2l34.2 48.6s37.6 12.4 55.9-28.7L819.5 683s-62.7-5.2-55.7 40.2zM822.8 829.9s-23.6-54.9 59.9-47.6c0 0 42.3 34.9 22.2 104.6 0 0-18.2-18-32.3-18 0 0.1-47.8-14.5-49.8-39zM504 383.6s8.2-19-5.9-25.4L445.3 330s-19.4-5.6-24.9 14.1l-240 392.4s-6.3 16.9 9.2 25.4l47.9 27.5s13.4 4.9 27.1-6L504 383.6zM160.7 781.7l69.4 40.1-85.7 56.4 10.7-96.5zM70.7 486v114.1s3.7 15.9 17.4 16.4l121.7-1.6L300 468H84.5s-13.3 0.5-13.8 18zM510.9 468h60.2l70.2 146.4H424.2zM751.8 468h189.1s15.9 4.8 14.3 18.5l0.1 117.8s-4.9 14.3-17 12.7l-103.6-2.6L751.8 468z" p-id="7098" fill=""></path></svg>