<svg width="1024" height="1024" xmlns="http://www.w3.org/2000/svg" xmlns:svg="http://www.w3.org/2000/svg" class="icon">
    <defs>
        <style type="text/css"/>
    </defs>
    <g>
        <title>Layer 1</title>
        <path id="svg_1" fill="" d="m183.15554,303.62637l-113.59351,113.59351c-55.53927,55.53927 -54.84066,143.77335 0,198.54415l113.52365,113.66337c-2.02595,-32.20579 9.29148,-64.97046 33.81259,-89.49157c45.40945,-45.40946 119.04264,-45.40946 164.45211,0c45.40946,45.3396 45.40946,118.97279 0,164.45211c-24.59097,24.59097 -57.35565,35.90841 -89.49157,33.81259l113.59352,113.52365c55.53926,55.60913 143.70347,54.84066 198.54413,0l335.96016,-335.96016c55.53926,-55.53926 54.84065,-143.70347 0,-198.54413l-85.71909,-85.71909c30.10996,-4.2615 59.17202,-17.9542 82.22605,-41.14795c56.79676,-56.7269 56.79676,-148.80331 0,-205.53021c-56.7269,-56.79676 -148.73345,-56.79676 -205.46034,0c-23.19375,23.12389 -36.88645,52.11609 -41.21781,82.22605l-85.71909,-85.71908c-55.53927,-55.53927 -143.77334,-54.84066 -198.54413,0l-113.59352,113.52365c32.13593,-1.9561 64.97046,9.29147 89.49157,33.81258c45.40946,45.40946 45.40946,119.04265 0,164.45212c-45.40946,45.40945 -119.04265,45.40945 -164.45211,0c-24.52111,-24.52111 -35.83854,-57.35565 -33.81259,-89.49157z"/>
    </g>
</svg>