<?xml version="1.0" standalone="no"?><!DOCTYPE svg PUBLIC "-//W3C//DTD SVG 1.1//EN" "http://www.w3.org/Graphics/SVG/1.1/DTD/svg11.dtd"><svg t="1538193526109" class="icon" style="" viewBox="0 0 1024 1024" version="1.1" xmlns="http://www.w3.org/2000/svg" p-id="946" xmlns:xlink="http://www.w3.org/1999/xlink" width="200" height="200"><defs><style type="text/css"></style></defs><path d="M809.984 598.016l0-86.016-128 0 0-128-84.010667 0 0 128-128 0 0 86.016 128 0 0 128 84.010667 0 0-128 128 0zM854.016 256q36.010667 0 59.989333 25.002667t24.021333 61.013333l0 425.984q0 36.010667-24.021333 61.013333t-59.989333 25.002667l-683.989333 0q-36.010667 0-59.989333-25.002667t-24.021333-61.013333l0-512q0-36.010667 24.021333-61.013333t59.989333-25.002667l256 0 86.016 86.016 342.016 0z" p-id="947"></path></svg>