<?xml version="1.0" standalone="no"?><!DOCTYPE svg PUBLIC "-//W3C//DTD SVG 1.1//EN" "http://www.w3.org/Graphics/SVG/1.1/DTD/svg11.dtd"><svg t="1538541024292" class="icon" style="" viewBox="0 0 1194 1024" version="1.1" xmlns="http://www.w3.org/2000/svg" p-id="6091" xmlns:xlink="http://www.w3.org/1999/xlink" width="746.25" height="640"><defs><style type="text/css"></style></defs><path d="M0 284.444444h1194.666667v739.555556H0V284.444444z m0-45.909333V0h1194.666667v238.535111H0z m167.424-56.888889a56.888889 56.888889 0 1 0 0-113.777778 56.888889 56.888889 0 0 0 0 113.777778z m227.555556 0a56.888889 56.888889 0 1 0 0-113.777778 56.888889 56.888889 0 0 0 0 113.777778z m227.555555 0a56.888889 56.888889 0 1 0 0-113.777778 56.888889 56.888889 0 0 0 0 113.777778z m-188.814222 599.608889l-115.484445-134.712889 115.484445-125.155555-76.970667-76.970667-182.840889 202.126222 182.840889 202.069334 76.970667-67.356445z m404.195555 67.356445l182.840889-202.069334-182.840889-202.126222-76.970666 77.027556 115.484444 125.098666-115.484444 134.712889 76.970666 67.356445zM481.848889 598.414222v105.813334h221.297778v-105.813334H481.848889z" p-id="6092" fill=""></path></svg>