<?xml version="1.0" standalone="no"?><!DOCTYPE svg PUBLIC "-//W3C//DTD SVG 1.1//EN" "http://www.w3.org/Graphics/SVG/1.1/DTD/svg11.dtd"><svg t="1538542726595" class="icon" style="" viewBox="0 0 1024 1024" version="1.1" xmlns="http://www.w3.org/2000/svg" p-id="9227" xmlns:xlink="http://www.w3.org/1999/xlink" width="640" height="640"><defs><style type="text/css"></style></defs><path d="M954.990277 347.608929c-4.945639 7.221472-8.93244 15.467273-15.173584 21.303188-4.14132 3.873214-11.413957 4.687766-17.463744 6.118348-3.554966 0.840134-7.459902 0.229221-11.207249 0.229221-266.097474 0.004093-532.194948-0.145309-798.291398 0.280386-21.779026 0.034792-36.810371-6.694469-43.844577-27.931143 0-15.573697 0-31.147394 0-46.722114 4.898567-11.230786 14.352893-17.319457 24.814152-22.544459C229.835595 210.41836 365.8115 142.42171 501.772055 74.393337c2.983961-1.493004 5.671163-3.576455 8.497535-5.384637 1.153266 0 2.307555 0 3.460822 0 2.826372 1.808182 5.513574 3.891633 8.497535 5.383614 135.959531 68.028373 271.935436 136.025023 407.948179 203.949019 10.461259 5.225001 19.915585 11.313673 24.814152 22.544459C954.990277 316.461535 954.990277 332.035232 954.990277 347.608929z" p-id="9228" fill=""></path><path d="M69.009723 845.973374c7.898901-21.801539 24.338315-27.453259 46.187949-27.421536 264.534885 0.382717 529.069771 0.382717 793.604656 0 21.849634-0.031722 38.289048 5.619998 46.187949 27.421536 0 27.110451 0 54.219879 0 81.33033-4.705162 13.752212-13.934361 22.981411-27.686573 27.686573-276.868795 0-553.73759 0-830.606385 0-13.752212-4.705162-22.981411-13.934361-27.686573-27.686573C69.009723 900.193253 69.009723 873.082802 69.009723 845.973374z" p-id="9229" fill=""></path><path d="M307.345923 478.168474c0 101.847619 0 203.219401 0 305.306474-45.494147 0-90.235141 0-135.933949 0 0-102.005208 0-203.620537 0-305.009715-25.621541-5.900384-33.983999-16.417925-34.056654-41.895179-0.024559-8.583492-0.004093-17.166985-0.004093-26.136264 68.166519 0 135.234007 0 204.573235 0-0.914836 15.041578-0.417509 30.021757-3.115967 44.402279C336.343351 467.972251 325.278341 474.859102 307.345923 478.168474z" p-id="9230" fill=""></path><path d="M887.167588 410.613892c-0.657986 14.287401 0.322341 28.616758-2.375094 42.216497-3.13541 15.812127-15.70161 23.223934-32.213679 25.170263 0 101.865016 0 203.480344 0 305.641095-45.509497 0-90.065272 0-135.656633 0 0-101.83227 0-203.420993 0-303.654858-8.029884-3.696182-15.826454-5.483898-21.008476-10.1645-5.429663-4.903683-10.837836-12.226462-11.833513-19.129686-1.864464-12.922311-0.536212-26.306132-0.536212-40.078811C750.968603 410.613892 818.261219 410.613892 887.167588 410.613892z" p-id="9231" fill=""></path><path d="M580.115354 783.732821c-45.983287 0-90.246397 0-135.629004 0 0-102.038978 0-203.625654 0-305.502949-19.133779-2.668783-31.841196-11.907191-33.942043-30.889521-1.318018-11.909238-0.245593-24.082488-0.245593-36.721343 67.7398 0 135.045719 0 202.569602 0 0 13.638625 1.685385 27.572986-0.428765 40.905642-2.605338 16.428158-15.117302 24.276916-32.324196 26.400277C580.115354 579.51979 580.115354 681.074743 580.115354 783.732821z" p-id="9232" fill=""></path></svg>