<?xml version="1.0" standalone="no"?><!DOCTYPE svg PUBLIC "-//W3C//DTD SVG 1.1//EN" "http://www.w3.org/Graphics/SVG/1.1/DTD/svg11.dtd"><svg t="1538542825192" class="icon" style="" viewBox="0 0 1024 1024" version="1.1" xmlns="http://www.w3.org/2000/svg" p-id="10001" xmlns:xlink="http://www.w3.org/1999/xlink" width="640" height="640"><defs><style type="text/css"></style></defs><path d="M544 768h-384a32 32 0 0 1-32-32v-384a32 32 0 0 1 32-32h384a32 32 0 0 1 0 64H192v320h352a32 32 0 0 1 0 64z m-256-256a32 32 0 0 0 0 64h192a32 32 0 0 0 0-64h-192z m512 384H704V192h96a32 32 0 0 0 0-64h-256a32 32 0 0 0 0 64H640v704H544a32 32 0 0 0 0 64h256a32 32 0 0 0 0-64z m64-576h-64a32 32 0 0 0 0 64h32v320h-32a32 32 0 0 0 0 64h64a32 32 0 0 0 32-32v-384a32 32 0 0 0-32-32z" p-id="10002" fill=""></path></svg>