<?xml version="1.0" standalone="no"?><!DOCTYPE svg PUBLIC "-//W3C//DTD SVG 1.1//EN" "http://www.w3.org/Graphics/SVG/1.1/DTD/svg11.dtd"><svg t="1538193465345" class="icon" style="" viewBox="0 0 1024 1024" version="1.1" xmlns="http://www.w3.org/2000/svg" p-id="625" xmlns:xlink="http://www.w3.org/1999/xlink" width="200" height="200"><defs><style type="text/css"></style></defs><path d="M853.333333 204.8c17.066667-8.533333 25.6-17.066667 38.4-17.066667 21.333333 0 34.133333 12.8 38.4 21.333334 8.533333 12.8 38.4 21.333333 51.2 21.333333 8.533333 0 21.333333-29.866667 29.866667-55.466667s8.533333-55.466667 4.266667-59.733333c-4.266667-4.266667-38.4-12.8-46.933334-12.8-4.266667 4.266667-12.8 8.533333-29.866666 8.533333s-34.133333-12.8-46.933334-25.6c-21.333333-21.333333-46.933333-29.866667-72.533333-38.4-25.6-8.533333-55.466667-8.533333-81.066667-8.533333-38.4-4.266667-81.066667-4.266667-119.466666 8.533333-17.066667 4.266667-29.866667 8.533333-46.933334 17.066667-4.266667 4.266667-17.066667 8.533333-21.333333 8.533333-4.266667 4.266667-4.266667 8.533333 0 8.533334s21.333333-4.266667 21.333333-4.266667-21.333333 8.533333-21.333333 17.066667c0 4.266667 4.266667 4.266667 4.266667 4.266666s12.8-4.266667 21.333333-4.266666c17.066667 0 42.666667-8.533333 64-8.533334 25.6 0 51.2 8.533333 76.8 34.133334 38.4 46.933333 34.133333 106.666667 34.133333 119.466666-8.533333 89.6-209.066667 635.733333-217.6 674.133334-8.533333 38.4-8.533333 59.733333 38.4 72.533333s64 0 72.533334-17.066667c4.266667-29.866667 132.266667-704 209.066666-763.733333z" fill="" p-id="626"></path><path d="M686.933333 162.133333L0 268.8 110.933333 981.333333l366.933334-59.733333c-4.266667-29.866667 93.866667-285.866667 110.933333-332.8l-187.733333 29.866667 25.6-76.8 132.266666-21.333334 34.133334 42.666667s8.533333-21.333333 8.533333-29.866667L418.133333 307.2c-8.533333-12.8-8.533333-29.866667 4.266667-38.4l8.533333-8.533333c12.8-8.533333 29.866667-8.533333 38.4 4.266666l162.133334 187.733334c34.133333-102.4 64-192 64-221.866667 4.266667-8.533333 4.266667-38.4-8.533334-68.266667z m-512 422.4l115.2-21.333333-29.866666 76.8-76.8 12.8-8.533334-68.266667z m247.466667-217.6l12.8 4.266667c17.066667 4.266667 21.333333 21.333333 17.066667 38.4l-128 341.333333L247.466667 853.333333l8.533333-128 128-341.333333c4.266667-17.066667 21.333333-21.333333 38.4-17.066667z m460.8-119.466666c-17.066667 17.066667-38.4 72.533333-81.066667 234.666666h4.266667l12.8 68.266667-34.133333 4.266667c-4.266667 21.333333-8.533333 42.666667-17.066667 68.266666 72.533333 38.4 34.133333 132.266667 29.866667 132.266667-4.266667 0-4.266667 0-4.266667-4.266667s4.266667-17.066667-8.533333-21.333333c-8.533333-4.266667-25.6-8.533333-38.4-17.066667-12.8 51.2-25.6 110.933333-38.4 174.933334l268.8-42.666667-89.6-601.6-4.266667 4.266667z" fill="" p-id="627"></path></svg>